# xmcd
#
# Track frame offsets:
#	150
#	19882
#	36390
#	52619
#	75911
#	92327
#	112626
#	131083
#	149066
#
# Disc length: 2174 seconds
#
# Revision: 1
# Processed by: cddbd v1.5.2PL0 Copyright (c) Steve Scherf et al.
# Submitted via: audiograbber 1.81.01
#
DISCID=66087c09
DTITLE=Marco Miele - Un Cuore diviso
DYEAR=2008
DGENRE=Neomelodico
TTITLE0=Innamorato Di Te
TTITLE1=C'appicecame
TTITLE2=Un Cuore Diviso
TTITLE3=Voglio Solo Questo Amore
TTITLE4=A vita Chere'
TTITLE5=E' Finita Male
TTITLE6=Si Tutt'a vita mia
TTITLE7=Io Ti Penso
TTITLE8=Dedicato a te (Marco)
EXTD=
EXTT0=
EXTT1=
EXTT2=
EXTT3=
EXTT4=
EXTT5=
EXTT6=
EXTT7=
EXTT8=
PLAYORDER=
